<svg width="84" height="82" viewBox="0 0 84 82" fill="none" xmlns="http://www.w3.org/2000/svg">
<path d="M75.102 71.1352H43.3235L34.5622 35.9487C37.5282 35.525 40.7766 36.0899 43.4602 37.7848C44.1663 38.2085 45.0138 37.926 45.4375 37.3611C49.2509 31.0054 57.5839 28.8868 64.0809 32.7002C64.5046 32.9827 65.2108 32.9827 65.6345 32.7002C66.0582 32.4178 66.3407 31.8528 66.1995 31.2878C62.951 12.9269 45.155 0.780475 26.6529 4.5939L25.8054 1.06295C25.6642 0.356761 24.8168 -0.20819 24.1106 0.0742855C23.4044 0.215523 22.8394 1.06295 23.1219 1.76914L23.9693 5.30009C5.74965 10.3846 -4.137 29.7342 1.65375 47.2477C2.07746 48.3776 3.63108 48.5189 4.19603 47.5302C8.15069 41.1745 16.4837 39.0559 22.8394 42.8694C23.5456 43.2931 24.393 43.0106 24.8168 42.4456C26.5116 39.6209 29.0539 37.6436 31.8787 36.6549L40.4987 70.994H23.5502C18.7481 70.994 14.9347 74.9487 14.9347 79.6095C14.9347 80.457 15.4996 81.0219 16.3471 81.0219H82.5876C83.435 81.0219 84 80.457 84 79.6095C83.7175 74.9487 79.9041 71.1352 75.102 71.1352ZM62.8097 28.8868C56.454 26.627 49.3921 28.4631 44.8725 33.4064C42.6127 25.0734 37.6694 11.9383 31.3137 6.57123C45.5787 5.58256 58.8551 14.6218 62.8097 28.8868ZM3.63108 43.7168C0.38261 29.4518 7.86821 15.0455 21.0033 9.25475C18.4611 15.6104 19.026 27.7569 21.5683 39.3384C15.2126 36.9374 8.15069 38.6322 3.63108 43.7168ZM24.2518 38.491C20.5796 21.6837 21.992 8.40732 25.9467 7.41865C32.4436 5.7238 40.3529 27.6157 42.0478 33.9714C35.8333 31.7116 28.7714 33.5477 24.2518 38.491ZM17.7594 78.3384C18.3244 75.7961 20.7254 73.96 23.409 73.96H75.102C77.7855 73.96 80.1866 75.7961 80.7515 78.3384H17.7594Z" fill="black"/>
</svg>
