<svg width="84" height="76" viewBox="0 0 84 76" fill="none" xmlns="http://www.w3.org/2000/svg">
<rect width="84" height="75.8108" fill="white"/>
<path d="M37.2254 57.9915C49.4272 55.3989 58.581 44.5624 58.581 31.5878C58.581 28.7064 58.1295 25.9303 57.2934 23.3266C58.1757 23.4894 59.0388 23.7068 59.8792 23.975C60.5308 26.4025 60.8783 28.9546 60.8783 31.5878C60.8783 45.1752 51.6266 56.6018 39.0791 59.9116C38.422 59.311 37.8028 58.6696 37.2254 57.9915Z" fill="black"/>
<path d="M35.0269 54.8858C46.4015 53.2213 55.1351 43.4245 55.1351 31.5878C55.1351 28.5473 54.5588 25.6413 53.5095 22.9732C53.477 22.9731 53.4446 22.973 53.4121 22.973C52.6222 22.973 51.8424 23.0161 51.0749 23.1C52.2088 25.6998 52.8378 28.5704 52.8378 31.5878C52.8378 42.534 44.5614 51.5471 33.925 52.7108C34.2514 53.4592 34.6197 54.1852 35.0269 54.8858Z" fill="black"/>
<path d="M25.1206 51.8358C16.5469 49.0997 10.3378 41.0689 10.3378 31.5878C10.3378 19.8518 19.8517 10.3378 31.5878 10.3378C37.1109 10.3378 42.1419 12.445 45.9208 15.8992C46.8034 15.6664 47.7023 15.4737 48.6154 15.3233C44.3279 10.8359 38.2843 8.04055 31.5878 8.04055C18.583 8.04055 8.04048 18.583 8.04048 31.5878C8.04048 42.6529 15.6725 51.9354 25.9596 54.4583C25.6404 53.6024 25.36 52.7275 25.1206 51.8358Z" fill="black"/>
<path d="M27.7234 58.3066C14.6461 56.4319 4.59454 45.1837 4.59454 31.5878C4.59454 16.6799 16.6798 4.5946 31.5878 4.5946C40.2135 4.5946 47.8942 8.64045 52.8359 14.938C53.0275 14.9343 53.2196 14.9324 53.4121 14.9324C54.1986 14.9324 54.9778 14.9634 55.7486 15.0243C50.4692 7.33805 41.6171 2.2973 31.5878 2.2973C15.4111 2.2973 2.29724 15.4111 2.29724 31.5878C2.29724 46.9781 14.167 59.596 29.2513 60.7865C28.7025 59.9876 28.1923 59.16 27.7234 58.3066Z" fill="black"/>
<path fill-rule="evenodd" clip-rule="evenodd" d="M80.4054 44.223C80.4054 59.1309 68.3201 71.2162 53.4121 71.2162C38.5042 71.2162 26.4189 59.1309 26.4189 44.223C26.4189 29.315 38.5042 17.2297 53.4121 17.2297C68.3201 17.2297 80.4054 29.315 80.4054 44.223ZM82.7027 44.223C82.7027 60.3997 69.5888 73.5135 53.4121 73.5135C37.2354 73.5135 24.1216 60.3997 24.1216 44.223C24.1216 28.0463 37.2354 14.9324 53.4121 14.9324C69.5888 14.9324 82.7027 28.0463 82.7027 44.223ZM74.6622 44.223C74.6622 55.959 65.1482 65.473 53.4122 65.473C41.6761 65.473 32.1622 55.959 32.1622 44.223C32.1622 32.4869 41.6761 22.973 53.4122 22.973C65.1482 22.973 74.6622 32.4869 74.6622 44.223ZM76.9595 44.223C76.9595 57.2278 66.417 67.7703 53.4122 67.7703C40.4073 67.7703 29.8649 57.2278 29.8649 44.223C29.8649 31.2182 40.4073 20.6757 53.4122 20.6757C66.417 20.6757 76.9595 31.2182 76.9595 44.223Z" fill="black"/>
<path d="M33.3108 53.9865L36.7567 52.8378H38.4797L40.777 58.5811L37.9054 59.1554H34.4594L29.8648 59.7297L24.6959 59.1554L24.1216 56.2838L24.6959 52.8378L27.5675 53.9865H33.3108Z" fill="white"/>
<mask id="mask0_225_290" style="mask-type:alpha" maskUnits="userSpaceOnUse" x="19" y="44" width="32" height="23">
<path d="M20.6756 46.5203L38.4797 48.2432L43.6486 44.223L50.5405 66.6216H19.527L20.6756 46.5203Z" fill="#E8E8E8"/>
</mask>
<g mask="url(#mask0_225_290)">
<path fill-rule="evenodd" clip-rule="evenodd" d="M58.581 31.5878C58.581 46.4958 46.4957 58.5811 31.5878 58.5811C16.6798 58.5811 4.59454 46.4958 4.59454 31.5878C4.59454 16.6799 16.6798 4.5946 31.5878 4.5946C46.4957 4.5946 58.581 16.6799 58.581 31.5878ZM60.8783 31.5878C60.8783 47.7646 47.7645 60.8784 31.5878 60.8784C15.4111 60.8784 2.29724 47.7646 2.29724 31.5878C2.29724 15.4111 15.4111 2.2973 31.5878 2.2973C47.7645 2.2973 60.8783 15.4111 60.8783 31.5878ZM52.8378 31.5878C52.8378 43.3239 43.3239 52.8378 31.5878 52.8378C19.8518 52.8378 10.3378 43.3239 10.3378 31.5878C10.3378 19.8518 19.8518 10.3378 31.5878 10.3378C43.3239 10.3378 52.8378 19.8518 52.8378 31.5878ZM55.1351 31.5878C55.1351 44.5926 44.5926 55.1351 31.5878 55.1351C18.583 55.1351 8.04054 44.5926 8.04054 31.5878C8.04054 18.583 18.583 8.04054 31.5878 8.04054C44.5926 8.04054 55.1351 18.583 55.1351 31.5878Z" fill="black"/>
</g>
</svg>
