<svg width="135" height="88" viewBox="0 0 135 88" fill="none" xmlns="http://www.w3.org/2000/svg">
<g clip-path="url(#clip0_234_298)">
<path d="M59.1024 9.19328C60.2635 9.19328 61.2048 8.25458 61.2048 7.09664C61.2048 5.9387 60.2635 5 59.1024 5C57.9413 5 57 5.9387 57 7.09664C57 8.25458 57.9413 9.19328 59.1024 9.19328Z" fill="black"/>
<path d="M54.0512 2C53.4672 2 53 2.46592 53 3.04832C53 3.63072 53.4672 4.09664 54.0512 4.09664C54.6352 4.09664 55.1024 3.63072 55.1024 3.04832C55.1024 2.46592 54.6352 2 54.0512 2Z" fill="black"/>
<path d="M81.0512 1C80.4672 1 80 1.46592 80 2.04832C80 2.63072 80.4672 3.09664 81.0512 3.09664C81.6352 3.09664 82.1024 2.63072 82.1024 2.04832C82.1024 1.46592 81.6352 1 81.0512 1Z" fill="black"/>
<path d="M48.0512 5.09664C48.6352 5.09664 49.1024 4.63072 49.1024 4.04832C49.1024 3.46592 48.6352 3 48.0512 3C47.4672 3 47 3.46592 47 4.04832C47 4.63072 47.4672 5.09664 48.0512 5.09664Z" fill="black"/>
<path d="M87 4.04832C87 4.63072 87.4672 5.09664 88.0512 5.09664C88.6352 5.09664 89.1024 4.63072 89.1024 4.04832C89.1024 3.46592 88.6352 3 88.0512 3C87.4818 3 87 3.46592 87 4.04832Z" fill="black"/>
<path d="M78.1024 10.1933C79.2635 10.1933 80.2048 9.25458 80.2048 8.09664C80.2048 6.9387 79.2635 6 78.1024 6C76.9413 6 76 6.9387 76 8.09664C76 9.25458 76.9413 10.1933 78.1024 10.1933Z" fill="black"/>
<path d="M63.4156 14.3717L40.552 3.74288C40.2016 3.58272 39.7928 3.56816 39.4424 3.6992C39.0774 3.83024 38.7854 4.10688 38.6248 4.45632L25.7914 31.8874C24.2 35.2798 24.0394 39.0946 25.3242 42.6181C26.1856 44.9914 27.6602 47.0589 29.5582 48.6168L18.8418 71.5342L3.80384 71.0683C3.11764 71.0538 2.50444 71.5197 2.34384 72.1894C2.18324 72.8592 2.51904 73.5581 3.14684 73.8493L33.6316 88.0162C33.836 88.1035 34.0404 88.1472 34.2448 88.1472C34.6974 88.1472 35.1354 87.9434 35.4128 87.5648C35.8216 87.0115 35.7924 86.2398 35.3252 85.7302L25.295 74.5482L36.0114 51.6307C36.8436 51.7763 37.6904 51.8637 38.5226 51.8637C40.1432 51.8637 41.7784 51.587 43.3406 51.0046C46.8738 49.7234 49.6916 47.1462 51.283 43.7538L60.6562 23.7046L64.1164 16.3227C64.4668 15.5802 64.1456 14.7066 63.4156 14.3717ZM10.8264 74.1842L19.4112 74.4608L22.6816 75.975L28.4048 82.3669L10.8264 74.1842ZM33.179 50.8008L22.8568 72.8592L21.6888 72.3205L31.9964 50.2621L32.5804 50.5387L33.179 50.8008ZM48.6404 42.5162C47.3848 45.2098 45.151 47.2482 42.3478 48.2674C39.5446 49.2866 36.5224 49.1555 33.8214 47.9034C31.1204 46.6512 29.0764 44.4235 28.0544 41.628C27.0324 38.8325 27.1638 35.8186 28.4194 33.125L32.3614 24.6947C36.4786 25.3062 40.6542 25.6411 44.8006 25.6702C45.005 25.6702 45.2094 25.6702 45.4138 25.6702C49.239 25.6702 53.0788 25.4227 56.8748 24.9277L48.6404 42.5162ZM58.3494 21.7682C53.8818 22.4525 49.3412 22.7874 44.8298 22.7582C41.1068 22.7291 37.3546 22.4525 33.6608 21.9429L40.6396 7.00432L60.846 16.4101L58.3494 21.7682Z" fill="black"/>
<path d="M32.9309 36.7504C34.092 36.7504 35.0333 35.8117 35.0333 34.6538C35.0333 33.4958 34.092 32.5571 32.9309 32.5571C31.7698 32.5571 30.8285 33.4958 30.8285 34.6538C30.8285 35.8117 31.7698 36.7504 32.9309 36.7504Z" fill="black"/>
<path d="M43.326 39.444C42.742 39.444 42.2748 39.9099 42.2748 40.4923C42.2748 41.0747 42.742 41.5406 43.326 41.5406C43.91 41.5406 44.3772 41.0747 44.3772 40.4923C44.3772 39.9099 43.91 39.444 43.326 39.444Z" fill="black"/>
<path d="M40.698 30.6643C40.114 30.6643 39.6469 31.1303 39.6469 31.7127C39.6469 32.2951 40.114 32.761 40.698 32.761C41.282 32.761 41.7493 32.2951 41.7493 31.7127C41.7493 31.1303 41.2674 30.6643 40.698 30.6643Z" fill="black"/>
<path d="M49.6625 33.2705C50.8236 33.2705 51.7649 32.3319 51.7649 31.1739C51.7649 30.016 50.8236 29.0773 49.6625 29.0773C48.5013 29.0773 47.5601 30.016 47.5601 31.1739C47.5601 32.3319 48.5013 33.2705 49.6625 33.2705Z" fill="black"/>
<path d="M133.656 72.1749C133.496 71.5051 132.882 71.0392 132.196 71.0538L117.158 71.5197L106.442 48.6022C108.354 47.0298 109.814 44.9768 110.676 42.6035C111.961 39.08 111.8 35.2653 110.209 31.8728L97.3752 4.44176C97.2146 4.09232 96.9226 3.81568 96.5576 3.68464C96.1926 3.5536 95.7984 3.56816 95.448 3.72832L72.5844 14.3571C71.8544 14.692 71.5332 15.5656 71.8836 16.2936L75.3438 23.6755L84.717 43.7246C86.3084 47.1171 89.1262 49.6942 92.6594 50.9755C94.2362 51.5434 95.8568 51.8346 97.4774 51.8346C98.3242 51.8346 99.1564 51.7472 99.9886 51.6016L110.705 74.519L100.675 85.7011C100.208 86.2107 100.178 86.9824 100.587 87.5357C100.865 87.9142 101.303 88.1181 101.755 88.1181C101.96 88.1181 102.179 88.0744 102.368 87.987L132.853 73.8202C133.481 73.5435 133.817 72.8447 133.656 72.1749ZM95.3604 6.98976L102.339 21.9283C98.6454 22.4379 94.8932 22.7146 91.1702 22.7437C86.6588 22.7728 82.1182 22.4379 77.6506 21.7536L75.1394 16.381L95.3604 6.98976ZM93.6522 48.2528C90.849 47.2336 88.6152 45.1952 87.3596 42.5016L79.1252 24.8986C82.9212 25.3936 86.761 25.6411 90.5862 25.6411C90.7906 25.6411 90.995 25.6411 91.1994 25.6411C95.3458 25.612 99.5214 25.2771 103.639 24.6656L107.581 33.0958C108.836 35.7894 108.968 38.8034 107.946 41.5989C106.924 44.3944 104.88 46.6221 102.179 47.8742C99.4776 49.141 96.4408 49.272 93.6522 48.2528ZM103.405 50.5242L103.989 50.2475L114.297 72.3059L113.129 72.8447L102.821 50.7862L103.405 50.5242ZM107.595 82.3669L113.318 75.975L116.589 74.4608L125.174 74.1842L107.595 82.3669Z" fill="black"/>
<path d="M91.6083 42.0794C92.7694 42.0794 93.7107 41.1407 93.7107 39.9827C93.7107 38.8248 92.7694 37.8861 91.6083 37.8861C90.4471 37.8861 89.5059 38.8248 89.5059 39.9827C89.5059 41.1407 90.4471 42.0794 91.6083 42.0794Z" fill="black"/>
<path d="M101.77 38.847C102.35 38.847 102.821 38.3777 102.821 37.7987C102.821 37.2197 102.35 36.7504 101.77 36.7504C101.189 36.7504 100.719 37.2197 100.719 37.7987C100.719 38.3777 101.189 38.847 101.77 38.847Z" fill="black"/>
<path d="M90.557 31.1739C90.557 30.5915 90.0898 30.1256 89.5058 30.1256C88.9218 30.1256 88.4546 30.5915 88.4546 31.1739C88.4546 31.7563 88.9218 32.2223 89.5058 32.2223C90.0898 32.2223 90.557 31.7563 90.557 31.1739Z" fill="black"/>
<path d="M100.091 33.2705C101.252 33.2705 102.193 32.3319 102.193 31.1739C102.193 30.016 101.252 29.0773 100.091 29.0773C98.9297 29.0773 97.9884 30.016 97.9884 31.1739C97.9884 32.3319 98.9297 33.2705 100.091 33.2705Z" fill="black"/>
</g>
<defs>
<clipPath id="clip0_234_298">
<rect width="135" height="88" fill="white"/>
</clipPath>
</defs>
</svg>
