<svg width="84" height="78" viewBox="0 0 84 78" fill="none" xmlns="http://www.w3.org/2000/svg">
<path fill-rule="evenodd" clip-rule="evenodd" d="M76.1907 63.957C75.5979 64.5831 74.9844 65.233 74.3708 65.9236C73.2909 67.1395 71.0353 66.2698 70.0238 65.0085L62.6504 55.8308C64.5951 55.682 66.5399 55.4034 68.4846 54.9915L71.9269 61.2084C72.3107 61.8885 73.2327 62.062 73.83 61.5339L77.8755 57.9616C78.3643 57.5311 79.9866 57.5623 80.6002 57.8712C79.7058 60.2672 78.0731 61.9822 76.1907 63.957ZM52.5108 65.3132C52.4484 65.5118 52.438 65.7229 52.49 65.9267L53.2076 69.3658C53.1452 69.6737 52.5524 70.7022 51.0549 72.0261C49.5781 73.3302 48.4966 73.8024 48.1534 73.8419C47.8206 73.5288 47.6854 71.6808 48.1846 69.655L51.7828 55.1746C52.9788 55.421 54.2059 55.6082 55.4539 55.7382L52.5108 65.3132ZM53.7796 42.5744C55.8595 38.322 55.8283 33.4851 53.686 28.2L49.5365 4.82068C49.3909 4.0511 49.9109 3.31377 50.6805 3.17545C51.45 3.04023 52.1884 3.55503 52.3236 4.32562L54.2163 14.9478C54.0603 15.5551 53.9772 16.1874 53.9772 16.8405C53.9772 22.025 58.9638 25.7283 63.888 24.3116L66.3111 25.9402L74.0588 29.3232C75.377 29.899 75.6209 31.5097 76.1595 33.2355L78.2394 39.8799C78.3289 40.1657 77.4188 40.7673 76.6587 40.7014C76.0867 40.6515 75.8059 40.1242 75.2964 38.661L73.1748 32.5211C73.0605 32.1956 72.8213 31.9304 72.4989 31.792L66.4879 29.1839C65.5913 28.7921 64.5905 29.5634 64.7927 30.5576L66.6543 39.9079C66.6959 40.0993 66.7791 40.2781 66.9039 40.431C69.639 43.8972 72.6861 47.0337 76.1699 49.9727C65.8327 54.3956 54.5283 54.6317 45.7198 50.6424C49.4533 48.5282 52.2196 45.7691 53.7796 42.5744ZM61.7457 11.5367C58.8234 11.5367 56.4419 13.9161 56.4419 16.8405C56.4419 19.7649 58.8234 22.1443 61.7457 22.1443C64.6784 22.1443 67.0495 19.7649 67.0495 16.8405C67.0495 13.9162 64.6784 11.5367 61.7457 11.5367ZM45.4807 5.02347C45.2891 6.18887 44.1278 6.20436 43.6919 6.93075L34.9458 21.5089C34.6547 21.9925 34.2075 22.2494 33.6459 22.2494H30.5572C28.3525 22.2494 26.5638 24.0402 26.5638 26.2428V40.0567C26.5638 41.4366 26.4182 42.5952 26.0646 43.9315L23.5791 53.4295C21.3535 48.5292 20.324 43.84 20.5216 39.4535C20.5528 38.7723 20.0224 38.1962 19.3464 38.167C18.6705 38.1358 18.0881 38.6641 18.0569 39.3453C17.8073 45.0256 19.4089 51.1177 22.8199 57.4521L26.491 66.4134L26.9694 70.6565C27.0955 71.7984 27.9296 73.9412 27.8429 74.653C27.2908 74.88 26.8599 75.0218 26.231 74.758C25.7942 74.5771 25.4614 74.2433 25.295 73.8159L15.353 49.4537C14.8538 48.2495 14.625 47.1814 14.573 45.8815L14.3962 41.8266L14.1674 26.7056C14.157 25.6459 13.7515 24.6902 13.0027 23.9414L4.10062 15.0352C2.75991 13.6941 3.25609 11.4747 4.95337 10.8077L14.053 7.24999C13.9202 8.21992 13.944 9.12896 14.1466 10.0849L8.16685 12.8097C7.37264 13.1693 7.19857 14.1961 7.80286 14.8064L11.0788 18.0864C12.6699 19.6672 14.7602 20.3868 16.9753 20.1081L31.1084 18.3412C31.462 18.2985 31.774 18.1072 31.9716 17.8191L40.5617 5.41029C41.4168 4.18339 43.0668 3.07078 44.2119 3.20144C44.6594 3.25252 44.9111 3.4699 45.1999 3.85141C45.4703 4.20915 45.5639 4.58251 45.4807 5.02347ZM17.5681 70.0242L19.3777 65.8612L17.4849 61.2271L16.8505 63.6461C16.8089 63.8219 16.7153 63.9862 16.6009 64.1245L14.3858 66.766L14.573 72.257C14.6502 74.5434 15.5375 74.667 15.9458 74.7768C16.5372 73.9651 17.0829 71.1099 17.5681 70.0242ZM21.7383 3.10782C18.8161 3.10782 16.4345 5.48726 16.4345 8.41163C16.4345 11.3371 18.8161 13.7165 21.7383 13.7165C24.6606 13.7165 27.0421 11.3371 27.0421 8.41163C27.0421 5.48726 24.6606 3.10782 21.7383 3.10782ZM82.0873 55.8984C80.6522 54.9395 77.6779 54.8491 76.2427 56.1105L73.3412 58.6678L70.9701 54.3883C73.7052 53.6417 76.4091 52.6402 79.009 51.3891C79.8408 50.9901 79.9495 49.8724 79.2482 49.3123C75.3484 46.1914 71.9997 42.8583 69.015 39.1311L67.6734 32.388L71.0221 33.8408L72.9668 39.467C73.4453 40.8616 74.1732 42.9685 76.4507 43.1599C77.7819 43.2733 79.2794 42.6534 80.0802 41.6519C80.6833 40.9001 80.8705 40.0098 80.6002 39.1435L78.5203 32.4982C77.8774 30.4921 77.4771 28.1249 75.0468 27.0634L67.4031 23.7251L66.4151 23.0491C68.3078 21.6306 69.5246 19.3749 69.5246 16.8405C69.5246 12.5538 66.0303 9.06786 61.7457 9.06786C59.5305 9.06786 57.5234 10.0049 56.1091 11.5035L54.7571 3.89303C54.1633 0.510999 49.7403 -0.49577 47.7478 2.35177C47.6438 2.49946 47.5502 2.65339 47.467 2.81352C46.8643 1.71328 45.7471 0.895885 44.4927 0.750251C42.4752 0.521448 40.624 1.88381 39.9169 2.47552C39.3969 2.90919 38.9497 3.40944 38.5337 4.00427L30.2556 15.9597L16.6737 17.658C15.2074 17.843 13.8762 17.3865 12.8259 16.3414L10.8083 14.3196L15.0618 12.3822C16.4137 14.6566 18.8993 16.1854 21.7383 16.1854C26.023 16.1854 29.5069 12.6984 29.5069 8.41163C29.5069 4.12598 26.023 0.635834 21.7383 0.635834C19.0345 0.635834 16.6529 2.0294 15.2594 4.12804L4.05902 8.50939C0.676354 9.83118 -0.227517 14.2019 2.35349 16.7813L11.2556 25.6875C11.5571 25.9849 11.7027 26.3208 11.7027 26.742L11.9315 41.8797C11.9315 41.8911 11.9315 41.9025 11.9315 41.914L12.0979 45.9855C12.1707 47.5652 12.4619 48.9244 13.0651 50.3876L15.9354 57.4271L14.5314 62.7486L12.1915 65.5398C11.9939 65.7738 11.8899 66.0713 11.9003 66.377L12.1083 72.3422C12.2227 75.6639 13.8242 76.7745 15.1554 77.1219C15.4751 77.2054 15.742 77.2956 16.0914 77.2956C18.6773 77.2956 19.1219 72.67 19.8248 71.008L20.6776 69.0518L23.0071 74.7487C23.8896 76.9019 26.3369 77.9263 28.4877 77.0522L28.8829 76.8931C31.5968 75.7925 29.6066 72.0015 29.4237 70.3809L28.9245 65.9673C28.9141 65.8539 28.8829 65.7437 28.8413 65.6386L25.243 56.8426L28.4565 44.5555C28.8517 43.0247 29.0285 41.6374 29.0285 40.0567V26.2428C29.0285 25.4025 29.7149 24.7172 30.5572 24.7172H33.6459C35.0811 24.7172 36.329 24.01 37.0674 22.7777L45.6679 8.4397C45.8117 8.28946 46.7433 7.91988 47.3838 6.86315L51.2733 28.7596C51.2941 28.8469 51.3149 28.9321 51.3461 29.0133C56.3067 41.0831 47.9246 47.0452 42.4752 49.5234C41.5799 49.934 41.4912 51.2185 42.392 51.7229C44.5551 52.9366 46.9054 53.8975 49.3909 54.5953L45.7927 69.0611C45.0647 71.9918 45.0959 75.6327 47.571 76.2494C49.5783 76.7296 52.4196 74.1634 53.2284 73.3864C54.4971 72.1634 55.9427 70.3965 55.6307 68.9177L54.9651 65.7323L57.9706 55.9181L59.5826 55.9514L68.0998 66.5548C70.0191 68.9464 74.0171 70.0533 76.2219 67.5553C78.8101 64.6231 81.6574 62.37 83.0129 58.438C83.3457 57.476 82.9921 56.5036 82.0873 55.8984Z" fill="black"/>
</svg>
